<?xml version="1.0" encoding="utf-8"?>
<!-- Generator: Adobe Illustrator 25.2.0, SVG Export Plug-In . SVG Version: 6.00 Build 0)  -->
<svg version="1.1" id="Layer_1" xmlns="http://www.w3.org/2000/svg" xmlns:xlink="http://www.w3.org/1999/xlink" x="0px" y="0px"
	 viewBox="0 0 12 14" style="enable-background:new 0 0 12 14;" xml:space="preserve">
<path d="M3.8,1.7C3.6,1.7,3.4,1.8,3.2,2C3.1,2.1,3,2.3,3,2.5C3,2.7,3.1,2.9,3.2,3c0.1,0.1,0.3,0.2,0.5,0.2S4.1,3.2,4.3,3
	c0.1-0.1,0.2-0.3,0.2-0.5c0-0.2-0.1-0.4-0.2-0.5C4.1,1.8,3.9,1.7,3.8,1.7z M1.6,1.7c0.2-0.4,0.4-0.8,0.8-1.1s0.8-0.4,1.3-0.4
	s0.9,0.1,1.3,0.4c0.4,0.3,0.7,0.6,0.8,1.1h5.4c0.2,0,0.4,0.1,0.5,0.2C11.9,2.1,12,2.3,12,2.5c0,0.2-0.1,0.4-0.2,0.5
	c-0.1,0.1-0.3,0.2-0.5,0.2H5.9C5.7,3.7,5.4,4.1,5.1,4.3C4.7,4.6,4.2,4.8,3.8,4.8S2.8,4.6,2.4,4.3C2.1,4.1,1.8,3.7,1.6,3.2H0.8
	C0.6,3.2,0.4,3.2,0.2,3C0.1,2.9,0,2.7,0,2.5C0,2.3,0.1,2.1,0.2,2c0.1-0.1,0.3-0.2,0.5-0.2H1.6z M8.2,6.2c-0.2,0-0.4,0.1-0.5,0.2
	C7.6,6.6,7.5,6.8,7.5,7c0,0.2,0.1,0.4,0.2,0.5c0.1,0.1,0.3,0.2,0.5,0.2s0.4-0.1,0.5-0.2C8.9,7.4,9,7.2,9,7c0-0.2-0.1-0.4-0.2-0.5
	C8.6,6.3,8.4,6.2,8.2,6.2z M6.1,6.2c0.2-0.4,0.4-0.8,0.8-1.1c0.4-0.3,0.8-0.4,1.3-0.4s0.9,0.1,1.3,0.4c0.4,0.3,0.7,0.6,0.8,1.1h0.9
	c0.2,0,0.4,0.1,0.5,0.2C11.9,6.6,12,6.8,12,7c0,0.2-0.1,0.4-0.2,0.5c-0.1,0.1-0.3,0.2-0.5,0.2h-0.9c-0.2,0.4-0.4,0.8-0.8,1.1
	C9.2,9.1,8.7,9.3,8.2,9.3S7.3,9.1,6.9,8.8C6.6,8.6,6.3,8.2,6.1,7.7H0.8c-0.2,0-0.4-0.1-0.5-0.2C0.1,7.4,0,7.2,0,7
	c0-0.2,0.1-0.4,0.2-0.5c0.1-0.1,0.3-0.2,0.5-0.2H6.1z M3.8,10.7c-0.2,0-0.4,0.1-0.5,0.2C3.1,11.1,3,11.3,3,11.5s0.1,0.4,0.2,0.5
	c0.1,0.1,0.3,0.2,0.5,0.2s0.4-0.1,0.5-0.2c0.1-0.1,0.2-0.3,0.2-0.5S4.4,11.1,4.3,11C4.1,10.8,3.9,10.7,3.8,10.7z M1.6,10.7
	c0.2-0.4,0.4-0.8,0.8-1.1c0.4-0.3,0.8-0.4,1.3-0.4s0.9,0.1,1.3,0.4c0.4,0.3,0.7,0.6,0.8,1.1h5.4c0.2,0,0.4,0.1,0.5,0.2
	c0.1,0.1,0.2,0.3,0.2,0.5s-0.1,0.4-0.2,0.5c-0.1,0.1-0.3,0.2-0.5,0.2H5.9c-0.2,0.4-0.4,0.8-0.8,1.1c-0.4,0.3-0.8,0.4-1.3,0.4
	s-0.9-0.1-1.3-0.4s-0.7-0.6-0.8-1.1H0.8c-0.2,0-0.4-0.1-0.5-0.2C0.1,11.9,0,11.7,0,11.5s0.1-0.4,0.2-0.5c0.1-0.1,0.3-0.2,0.5-0.2
	H1.6z"/>
</svg>
