<svg width="12" height="14" viewBox="0 0 12 14" fill="none" xmlns="http://www.w3.org/2000/svg">
<path d="M3.75 1.74988C3.55109 1.74988 3.36032 1.8289 3.21967 1.96955C3.07902 2.11021 3 2.30097 3 2.49988C3 2.6988 3.07902 2.88956 3.21967 3.03021C3.36032 3.17087 3.55109 3.24989 3.75 3.24989C3.94891 3.24989 4.13968 3.17087 4.28033 3.03021C4.42098 2.88956 4.5 2.6988 4.5 2.49988C4.5 2.30097 4.42098 2.11021 4.28033 1.96955C4.13968 1.8289 3.94891 1.74988 3.75 1.74988ZM1.6275 1.74988C1.78245 1.31074 2.0698 0.93046 2.44995 0.661477C2.8301 0.392494 3.28432 0.248047 3.75 0.248047C4.21568 0.248047 4.6699 0.392494 5.05005 0.661477C5.4302 0.93046 5.71755 1.31074 5.8725 1.74988H11.25C11.4489 1.74988 11.6397 1.8289 11.7803 1.96955C11.921 2.11021 12 2.30097 12 2.49988C12 2.6988 11.921 2.88956 11.7803 3.03021C11.6397 3.17087 11.4489 3.24989 11.25 3.24989H5.8725C5.71755 3.68903 5.4302 4.06931 5.05005 4.33829C4.6699 4.60728 4.21568 4.75172 3.75 4.75172C3.28432 4.75172 2.8301 4.60728 2.44995 4.33829C2.0698 4.06931 1.78245 3.68903 1.6275 3.24989H0.75C0.551088 3.24989 0.360322 3.17087 0.21967 3.03021C0.0790178 2.88956 0 2.6988 0 2.49988C0 2.30097 0.0790178 2.11021 0.21967 1.96955C0.360322 1.8289 0.551088 1.74988 0.75 1.74988H1.6275ZM8.25 6.24989C8.05109 6.24989 7.86032 6.3289 7.71967 6.46955C7.57902 6.61021 7.5 6.80097 7.5 6.99989C7.5 7.1988 7.57902 7.38956 7.71967 7.53021C7.86032 7.67087 8.05109 7.74989 8.25 7.74989C8.44891 7.74989 8.63968 7.67087 8.78033 7.53021C8.92098 7.38956 9 7.1988 9 6.99989C9 6.80097 8.92098 6.61021 8.78033 6.46955C8.63968 6.3289 8.44891 6.24989 8.25 6.24989ZM6.1275 6.24989C6.28245 5.81074 6.5698 5.43046 6.94995 5.16148C7.3301 4.89249 7.78432 4.74805 8.25 4.74805C8.71568 4.74805 9.1699 4.89249 9.55005 5.16148C9.9302 5.43046 10.2175 5.81074 10.3725 6.24989H11.25C11.4489 6.24989 11.6397 6.3289 11.7803 6.46955C11.921 6.61021 12 6.80097 12 6.99989C12 7.1988 11.921 7.38956 11.7803 7.53021C11.6397 7.67087 11.4489 7.74989 11.25 7.74989H10.3725C10.2175 8.18904 9.9302 8.56931 9.55005 8.83829C9.1699 9.10728 8.71568 9.25172 8.25 9.25172C7.78432 9.25172 7.3301 9.10728 6.94995 8.83829C6.5698 8.56931 6.28245 8.18904 6.1275 7.74989H0.75C0.551088 7.74989 0.360322 7.67087 0.21967 7.53021C0.0790178 7.38956 0 7.1988 0 6.99989C0 6.80097 0.0790178 6.61021 0.21967 6.46955C0.360322 6.3289 0.551088 6.24989 0.75 6.24989H6.1275ZM3.75 10.7499C3.55109 10.7499 3.36032 10.8289 3.21967 10.9696C3.07902 11.1102 3 11.301 3 11.4999C3 11.6988 3.07902 11.8896 3.21967 12.0302C3.36032 12.1709 3.55109 12.2499 3.75 12.2499C3.94891 12.2499 4.13968 12.1709 4.28033 12.0302C4.42098 11.8896 4.5 11.6988 4.5 11.4999C4.5 11.301 4.42098 11.1102 4.28033 10.9696C4.13968 10.8289 3.94891 10.7499 3.75 10.7499ZM1.6275 10.7499C1.78245 10.3107 2.0698 9.93046 2.44995 9.66148C2.8301 9.39249 3.28432 9.24805 3.75 9.24805C4.21568 9.24805 4.6699 9.39249 5.05005 9.66148C5.4302 9.93046 5.71755 10.3107 5.8725 10.7499H11.25C11.4489 10.7499 11.6397 10.8289 11.7803 10.9696C11.921 11.1102 12 11.301 12 11.4999C12 11.6988 11.921 11.8896 11.7803 12.0302C11.6397 12.1709 11.4489 12.2499 11.25 12.2499H5.8725C5.71755 12.689 5.4302 13.0693 5.05005 13.3383C4.6699 13.6073 4.21568 13.7517 3.75 13.7517C3.28432 13.7517 2.8301 13.6073 2.44995 13.3383C2.0698 13.0693 1.78245 12.689 1.6275 12.2499H0.75C0.551088 12.2499 0.360322 12.1709 0.21967 12.0302C0.0790178 11.8896 0 11.6988 0 11.4999C0 11.301 0.0790178 11.1102 0.21967 10.9696C0.360322 10.8289 0.551088 10.7499 0.75 10.7499H1.6275Z" fill="white"/>
</svg>
