<svg width="25" height="25" viewBox="0 0 25 25" fill="none" xmlns="http://www.w3.org/2000/svg">
  <path d="M5.64791 12.5L2.82751 15.3196L0 12.5L2.8204 9.6804L5.64791 12.5ZM12.5036 5.64631L17.3416 10.483L20.162 7.66335L12.5036 0L4.83802 7.66335L7.65843 10.483L12.5036 5.64631ZM22.1796 9.6804L19.3592 12.5L22.1796 15.3196L25 12.5L22.1796 9.6804ZM12.5036 19.3537L7.66553 14.517L4.84513 17.3366L12.5036 25L20.162 17.3366L17.3416 14.517L12.5036 19.3537ZM12.5036 15.3196L15.324 12.5L12.5036 9.6804L9.67604 12.5L12.5036 15.3196Z" fill="#F0B90B" />
</svg>