<svg width="132" height="131" viewBox="0 0 132 131" fill="none" xmlns="http://www.w3.org/2000/svg">
<g opacity="0.4" filter="url(#filter0_f_221_9021)">
<circle cx="65.9166" cy="65.7415" r="29.1768" transform="rotate(-13.8978 65.9166 65.7415)" fill="#FFB500"/>
</g>
<g filter="url(#filter1_b_221_9021)">
<circle cx="64.3294" cy="51.3294" r="42.3889" transform="rotate(-13.8978 64.3294 51.3294)" fill="black" fill-opacity="0.4"/>
</g>
<path fill-rule="evenodd" clip-rule="evenodd" d="M74.3882 43.9635C73.9115 40.0367 70.4809 38.801 66.1815 38.5312L66.0464 33.0711L62.722 33.1538L62.8536 38.4701C61.9808 38.4916 61.0881 38.5309 60.2012 38.5705L60.0694 33.2191L56.7477 33.3011L56.8814 38.7597C56.1622 38.7922 55.4559 38.823 54.7668 38.8405L54.766 38.8236L50.182 38.9354L50.2706 42.485C50.2706 42.485 52.7237 42.3775 52.6841 42.4237C54.0303 42.3909 54.4886 43.1613 54.6319 43.8328L54.7859 50.0531C54.8788 50.0513 55.0001 50.0522 55.1378 50.0676L54.7876 50.0764L55.0013 58.7907C54.9527 59.2158 54.7204 59.8975 53.7798 59.9224C53.8233 59.959 51.3639 59.9815 51.3639 59.9815L50.8019 63.9678L55.1279 63.8605C55.6164 63.849 56.1003 63.8423 56.5788 63.8357L56.5789 63.8357C56.8888 63.8314 57.1965 63.8271 57.5018 63.8216L57.6399 69.3447L60.9599 69.2632L60.8256 63.799C61.7368 63.7956 62.6191 63.781 63.4804 63.7589L63.6134 69.1977L66.9369 69.1152L66.8017 63.6027C72.3813 63.144 76.2582 61.6394 76.6125 56.3817C76.9002 52.1469 74.867 50.3105 71.6761 49.6264C73.5783 48.5958 74.7403 46.8372 74.3873 43.9637L74.3882 43.9635ZM70.0295 55.8866C70.124 59.6745 64.1705 59.7381 61.4489 59.7671L61.4488 59.7671C61.2052 59.7697 60.9874 59.7721 60.8022 59.7768L60.6222 52.46C60.8486 52.4545 61.1234 52.4412 61.4346 52.4261L61.4348 52.4261C64.2215 52.2914 69.9325 52.0152 70.0304 55.8864L70.0295 55.8866ZM61.0864 49.104C63.3587 49.085 68.3119 49.0436 68.2277 45.6022C68.1411 42.0816 63.381 42.3259 61.0562 42.4452C60.7948 42.4586 60.5643 42.4705 60.3746 42.4752L60.5384 49.1111C60.695 49.1072 60.8796 49.1057 61.0864 49.104Z" fill="#F7931A"/>
<defs>
<filter id="filter0_f_221_9021" x="0.73291" y="0.557861" width="130.367" height="130.367" filterUnits="userSpaceOnUse" color-interpolation-filters="sRGB">
<feFlood flood-opacity="0" result="BackgroundImageFix"/>
<feBlend mode="normal" in="SourceGraphic" in2="BackgroundImageFix" result="shape"/>
<feGaussianBlur stdDeviation="18" result="effect1_foregroundBlur_221_9021"/>
</filter>
<filter id="filter1_b_221_9021" x="0.463131" y="-12.5369" width="127.733" height="127.733" filterUnits="userSpaceOnUse" color-interpolation-filters="sRGB">
<feFlood flood-opacity="0" result="BackgroundImageFix"/>
<feGaussianBlur in="BackgroundImage" stdDeviation="10.7338"/>
<feComposite in2="SourceAlpha" operator="in" result="effect1_backgroundBlur_221_9021"/>
<feBlend mode="normal" in="SourceGraphic" in2="effect1_backgroundBlur_221_9021" result="shape"/>
</filter>
</defs>
</svg>
