<svg width="13" height="21" viewBox="0 0 13 21" fill="none" xmlns="http://www.w3.org/2000/svg">
<path fill-rule="evenodd" clip-rule="evenodd" d="M6.42906 0.751953C6.23964 0.751953 6.05797 0.827202 5.92402 0.961149C5.79007 1.09509 5.71482 1.27676 5.71482 1.46619L5.71482 18.3123L1.22082 13.8168C1.15442 13.7504 1.07558 13.6977 0.988816 13.6618C0.902051 13.6259 0.809056 13.6074 0.715142 13.6074C0.621229 13.6074 0.528234 13.6259 0.441469 13.6618C0.354704 13.6977 0.275867 13.7504 0.20946 13.8168C0.143053 13.8832 0.0903764 13.9621 0.0544371 14.0488C0.0184978 14.1356 7.77902e-08 14.2286 7.66703e-08 14.3225C7.55504e-08 14.4164 0.0184978 14.5094 0.0544371 14.5962C0.0903764 14.683 0.143053 14.7618 0.20946 14.8282L5.92338 20.5421C5.98973 20.6086 6.06855 20.6614 6.15532 20.6974C6.24209 20.7334 6.33512 20.752 6.42906 20.752C6.52301 20.752 6.61603 20.7334 6.70281 20.6974C6.78958 20.6614 6.8684 20.6086 6.93475 20.5421L12.6487 14.8282C12.7151 14.7618 12.7678 14.683 12.8037 14.5962C12.8396 14.5094 12.8581 14.4164 12.8581 14.3225C12.8581 14.2286 12.8396 14.1356 12.8037 14.0488C12.7678 13.9621 12.7151 13.8832 12.6487 13.8168C12.5823 13.7504 12.5034 13.6977 12.4167 13.6618C12.3299 13.6259 12.2369 13.6074 12.143 13.6074C12.0491 13.6074 11.9561 13.6259 11.8693 13.6618C11.7825 13.6977 11.7037 13.7504 11.6373 13.8168L7.1433 18.3123L7.1433 1.46619C7.1433 1.27676 7.06805 1.09509 6.93411 0.961149C6.80016 0.827202 6.61849 0.751953 6.42906 0.751953Z" fill="white"/>
</svg>
