<svg width="75" height="56" viewBox="0 0 75 56" fill="none" xmlns="http://www.w3.org/2000/svg">
<path d="M60 10.5H15C12.5147 10.5 10.5 12.5147 10.5 15V41C10.5 43.4853 12.5147 45.5 15 45.5H60C62.4853 45.5 64.5 43.4853 64.5 41V15C64.5 12.5147 62.4853 10.5 60 10.5Z" stroke="#292A2A"/>
<path d="M32.5 37C37.7467 37 42 32.9706 42 28C42 23.0294 37.7467 19 32.5 19C27.2533 19 23 23.0294 23 28C23 32.9706 27.2533 37 32.5 37Z" fill="#EE0005"/>
<path opacity="0.5" d="M44 37C48.9706 37 53 32.9706 53 28C53 23.0294 48.9706 19 44 19C39.0294 19 35 23.0294 35 28C35 32.9706 39.0294 37 44 37Z" fill="#FFAE4F"/>
</svg>
