<svg width="25" height="25" viewBox="0 0 25 25" fill="none" xmlns="http://www.w3.org/2000/svg">
<g clip-path="url(#clip0_4:1808)">
<path d="M21.9828 19.8952C21.9093 19.8475 21.3562 19.46 20.8024 18.2879C19.7853 16.1355 19.5719 13.1033 19.5719 10.9387C19.5719 10.9293 19.5717 10.92 19.5713 10.9106C19.5602 8.0498 17.8472 5.58369 15.3958 4.4772V2.78496C15.3958 1.24932 14.1486 0 12.6155 0H12.3851C10.8519 0 9.60468 1.24932 9.60468 2.78496V4.4771C7.14511 5.58716 5.42865 8.06587 5.42865 10.9387C5.42865 13.1033 5.21518 16.1354 4.19814 18.2879C3.64438 19.46 3.0913 19.8474 3.01777 19.8952C2.7081 20.0385 2.55541 20.3695 2.62665 20.705C2.69858 21.0438 3.01528 21.2774 3.36113 21.2774H8.72963C8.75961 23.3351 10.439 25 12.5003 25C14.5616 25 16.241 23.3351 16.2709 21.2774H21.6394C21.9852 21.2774 22.302 21.0438 22.3739 20.705C22.4451 20.3695 22.2924 20.0384 21.9828 19.8952ZM11.0696 2.78496C11.0696 2.05835 11.6597 1.46724 12.3851 1.46724H12.6155C13.3409 1.46724 13.931 2.05835 13.931 2.78496V4.00161C13.4687 3.90605 12.9902 3.85576 12.5001 3.85576C12.0101 3.85576 11.5317 3.90601 11.0696 4.00146V2.78496H11.0696ZM12.5003 23.5328C11.2467 23.5328 10.2242 22.5261 10.1945 21.2775H14.806C14.7764 22.526 13.7539 23.5328 12.5003 23.5328ZM15.4495 19.8102C15.4494 19.8102 5.03032 19.8102 5.03032 19.8102C5.15702 19.6127 5.28598 19.3891 5.41415 19.1364C6.39579 17.2007 6.89355 14.4426 6.89355 10.9387C6.89355 7.84219 9.40864 5.323 12.5 5.323C15.5914 5.323 18.1065 7.84219 18.1065 10.9412C18.1065 10.9502 18.1067 10.9592 18.107 10.9682C18.1098 14.458 18.6075 17.2062 19.5864 19.1364C19.7146 19.3892 19.8436 19.6127 19.9703 19.8102H15.4495Z" fill="#C4C4C4"/>
</g>
<defs>
<clipPath id="clip0_4:1808">
<rect width="25" height="25" fill="white"/>
</clipPath>
</defs>
</svg>
